<svg xmlns="http://www.w3.org/2000/svg" viewBox="0 0 300 60" fill="none">
  <defs>
    <linearGradient id="gold" x1="0%" y1="0%" x2="100%" y2="100%">
      <stop offset="0%" stop-color="#c9a227"/>
      <stop offset="100%" stop-color="#e8c547"/>
    </linearGradient>
  </defs>

  <!-- Shield with mdi:car inside -->
  <g transform="translate(0, 1)">
    <!-- Shield shape -->
    <path d="M28 2 L54 11 L54 31 C54 42 43 50 28 56 C13 50 2 42 2 31 L2 11 Z" fill="url(#gold)" opacity="0.1"/>
    <path d="M28 2 L54 11 L54 31 C54 42 43 50 28 56 C13 50 2 42 2 31 L2 11 Z" fill="none" stroke="url(#gold)" stroke-width="2"/>

    <!-- mdi:car icon scaled & centered inside shield -->
    <g transform="translate(9, 14) scale(1.6)">
      <path fill="url(#gold)" d="m5 11l1.5-4.5h11L19 11m-1.5 5a1.5 1.5 0 0 1-1.5-1.5a1.5 1.5 0 0 1 1.5-1.5a1.5 1.5 0 0 1 1.5 1.5a1.5 1.5 0 0 1-1.5 1.5m-11 0A1.5 1.5 0 0 1 5 14.5A1.5 1.5 0 0 1 6.5 13A1.5 1.5 0 0 1 8 14.5A1.5 1.5 0 0 1 6.5 16M18.92 6c-.2-.58-.76-1-1.42-1h-11c-.66 0-1.22.42-1.42 1L3 12v8a1 1 0 0 0 1 1h1a1 1 0 0 0 1-1v-1h12v1a1 1 0 0 0 1 1h1a1 1 0 0 0 1-1v-8z"/>
    </g>
  </g>

  <!-- Brand text -->
  <g transform="translate(68, 0)">
    <text x="0" y="28" font-family="'Outfit', 'Segoe UI', system-ui, sans-serif" font-weight="700" font-size="26" letter-spacing="3" fill="#0c1b2e">
      AUTO<tspan fill="url(#gold)"> SAVE</tspan>
    </text>
    <text x="1" y="48" font-family="'Source Serif 4', 'IBM Plex Sans Arabic', Georgia, serif" font-weight="400" font-size="11" letter-spacing="2.5" fill="#7a7062">
      AUTOMOTIVE CARE
    </text>
    <rect x="0" y="52" width="60" height="1.5" rx="0.75" fill="url(#gold)"/>
  </g>
</svg>
